<svg id="b20767ca-051f-4612-bcdf-409c9b6466bd" data-name="e2eb27c9-1787-461a-a193-8a3c70c01f55" xmlns="http://www.w3.org/2000/svg" viewBox="0 0 121.2 121.2"><path d="M60.6,93.65a33.05,33.05,0,1,0-33-33.05A33,33,0,0,0,60.6,93.65Zm0-11a22,22,0,1,0-22-22A22,22,0,0,0,60.6,82.64Z" transform="translate(0)" fill="#fff" fill-rule="evenodd"/><path d="M93.65,22a5.51,5.51,0,1,0,5.51,5.51A5.5,5.5,0,0,0,93.65,22Z" transform="translate(0)" fill="#fff"/><path d="M3.6,18.05C0,25.12,0,34.38,0,52.89V68.31c0,18.51,0,27.77,3.6,34.84A33.08,33.08,0,0,0,18.05,117.6c7.07,3.6,16.33,3.6,34.84,3.6H68.31c18.51,0,27.77,0,34.84-3.6a33.08,33.08,0,0,0,14.45-14.45c3.6-7.07,3.6-16.33,3.6-34.84V52.89c0-18.51,0-27.77-3.6-34.84A33.08,33.08,0,0,0,103.15,3.6C96.08,0,86.82,0,68.31,0H52.89C34.38,0,25.12,0,18.05,3.6A33.08,33.08,0,0,0,3.6,18.05Zm64.71-7H52.89c-9.44,0-15.86,0-20.82.41s-7.3,1.11-9,2a22,22,0,0,0-9.63,9.63c-.88,1.72-1.59,4.19-2,9S11,43.45,11,52.89V68.31c0,9.44,0,15.86.41,20.82s1.11,7.3,2,9a22,22,0,0,0,9.63,9.63c1.72.88,4.19,1.59,9,2s11.38.41,20.82.41H68.31c9.44,0,15.86,0,20.82-.41s7.3-1.11,9-2a22,22,0,0,0,9.63-9.63c.88-1.72,1.59-4.19,2-9s.41-11.38.41-20.82V52.89c0-9.44,0-15.86-.41-20.82s-1.11-7.3-2-9a22,22,0,0,0-9.63-9.63c-1.72-.88-4.19-1.59-9-2S77.75,11,68.31,11Z" transform="translate(0)" fill="#fff" fill-rule="evenodd"/></svg>