<svg id="eb706f7f-f6ee-4353-8368-fb9cd53a2f6c" data-name="e807b5e6-d625-4107-83cf-c65130c8848c" xmlns="http://www.w3.org/2000/svg" viewBox="0 0 104.1 121"><path d="M81,56.08q-.78-.37-1.59-.72C78.49,38.15,69.08,28.3,53.29,28.2h-.21c-9.44,0-17.3,4-22.13,11.37l8.68,6c3.61-5.48,9.28-6.64,13.45-6.64h.15c5.2,0,9.12,1.54,11.66,4.49a17.79,17.79,0,0,1,3.7,8.85,66.61,66.61,0,0,0-14.93-.72c-15,.87-24.66,9.62-24,21.79a18.79,18.79,0,0,0,8.65,15,26.72,26.72,0,0,0,16.11,4c7.85-.43,14-3.43,18.31-8.9C76,79.28,78.05,73.89,79,67.09a19.25,19.25,0,0,1,8,8.81c2.61,6.07,2.76,16-5.38,24.18-7.14,7.13-15.71,10.21-28.67,10.31-14.38-.11-25.25-4.72-32.32-13.71C14,88.27,10.6,76.12,10.44,60.56,10.6,45,14,32.82,20.63,24.38c7.07-9,17.94-13.6,32.32-13.7,14.48.11,25.54,4.74,32.88,13.77a44.72,44.72,0,0,1,8.1,16.48l10.17-2.71A55,55,0,0,0,93.88,17.63C84.47,6.06,70.71.12,53,0h-.07C35.22.12,21.61,6.08,12.47,17.7,4.34,28,.14,42.42,0,60.46v.08c.14,18,4.34,32.43,12.47,42.77,9.14,11.62,22.75,17.57,40.44,17.69H53c15.73-.11,26.82-4.23,36-13.35,12-11.94,11.59-26.91,7.65-36.09C93.77,65,88.37,59.62,81,56.08ZM53.85,81.62C47.27,82,40.43,79,40.1,72.71c-.25-4.69,3.33-9.92,14.15-10.55,1.24-.07,2.46-.1,3.65-.1a51.46,51.46,0,0,1,11,1.11C67.6,78.74,60.29,81.26,53.85,81.62Z" fill="#fff"/></svg>