<svg id="b877df02-4111-4384-a30b-69805a4e40d5" data-name="ed16c964-3c25-47dc-98a0-05ea8c671aca" xmlns="http://www.w3.org/2000/svg" viewBox="0 0 117.36 121.43"><path d="M26.75,37.37c.61-4.82,6.87-11.37,11.84-10.64h0c4.83.92,8.66,9.25,10.82,13a5.28,5.28,0,0,1-.89,6.63c-1.92,1.56-4.93,3.7-4.3,5.85,1.12,3.82,14.46,17.16,21,21,2.48,1.43,4.28-2.35,5.82-4.29A5.2,5.2,0,0,1,77.62,68,73.94,73.94,0,0,1,89,76.12a4.5,4.5,0,0,1,1,5.95c-2.15,4.05-8.36,9.39-12.88,8.3-7.88-1.89-39.76-14.25-50-50.05A5.15,5.15,0,0,1,26.75,37.37Z" transform="translate(0 0)" fill="#fff"/><path d="M58.68,117.36a43.44,43.44,0,0,1-16-2.67L31.44,120.3A10.67,10.67,0,0,1,16,110.76V98.68C4.52,88,0,75.62,0,58.68a58.68,58.68,0,1,1,58.68,58.68Zm-32-23.31-3.39-3.17c-8.93-8.32-12.61-17.62-12.61-32.2a48,48,0,1,1,48,48,32.69,32.69,0,0,1-12.61-2.12l-4.2-1.41-15.2,7.6Z" transform="translate(0 0)" fill="#fff" fill-rule="evenodd"/></svg>