<?xml version="1.0" encoding="utf-8"?>
<!-- Generator: Adobe Illustrator 25.3.1, SVG Export Plug-In . SVG Version: 6.00 Build 0)  -->
<svg version="1.1" id="bd3a33ce-fdbb-47dd-a5f0-12b82a6b130e"
	 xmlns="http://www.w3.org/2000/svg" xmlns:xlink="http://www.w3.org/1999/xlink" x="0px" y="0px" viewBox="0 0 255 178.1"
	 style="enable-background:new 0 0 255 178.1;" xml:space="preserve">
<style type="text/css">
	.st0{fill:#FFFFFF;}
	.st1{fill:#252A2C;}
</style>
<g id="e7000e37-9888-4b6f-bb1c-2bbbbfc8add6">
	<path id="afb852c9-75b5-4191-9bc0-215e81dd61a5" class="st0" d="M249.8,27.6c-3-10.9-11.5-19.4-22.5-22.4C207.3,0,127.5,0,127.5,0
		S47.7,0,27.7,5.2C16.8,8.2,8.2,16.8,5.2,27.7C0,47.6,0,89,0,89s0,41.6,5.2,61.3c3,10.9,11.5,19.5,22.5,22.5
		c20,5.2,99.8,5.2,99.8,5.2s79.8,0,99.8-5.2c10.9-3,19.5-11.5,22.5-22.5C255,130.3,255,89,255,89S255,47.6,249.8,27.6z"/>
	<polygon id="a21267a9-6b4a-4c87-9c9b-8bcd2c2539ed" class="st1" points="168.3,89.2 101.9,50.8 101.9,127.4 	"/>
</g>
</svg>
