<svg id="ac02c065-8c3f-4155-99f5-df0d035fe655" data-name="b9a68b55-a11d-4fdd-91ce-ad5cd10840a2" xmlns="http://www.w3.org/2000/svg" viewBox="0 0 950.87 215.69"><g style="isolation:isolate"><path d="M322.41,183.82,271.07,72.66V183.82H244.28V39.4H286l50.9,111.16V39.4H364.6V183.82Z" transform="translate(0 -1.99)" fill="#fff"/><path d="M460.8,183.82,457,173.55c-5.58,5.36-15.4,13.17-26.56,13.17-25.9,0-39.74-10.27-39.74-29.69,0-20.76,12.5-37.27,56-37.27h8.48v-4.92c0-7.81-1.56-16.51-14.51-16.51-14.06,0-27.45,4.24-37.27,8.93L394.73,86.5c13.62-4.92,31.25-7.59,47.32-7.59,22.55,0,38.62,10.26,38.62,32.59v41.07c0,8,2.68,19.87,4,31.25Zm-5.35-47.1h-5.58c-24.11,0-32.82,6.92-32.82,19.2,0,8.7,8.71,11.38,18.08,11.38a24.78,24.78,0,0,0,20.32-10.49Z" transform="translate(0 -1.99)" fill="#fff"/><path d="M559.24,205.47C534.46,199.22,513,183.15,513,157v-55.8h-17V81.58h17V54.35h25.22V81.58h23.88v19.65H538.26V159c0,14.51,10.71,20.76,27.68,24.78Z" transform="translate(0 -1.99)" fill="#fff"/><path d="M621.07,188.06c-12.5,0-31-3.57-43.3-6.92l8.7-23.66c10.72,4,23,8.93,34.82,8.93,18.09,0,30.81-3.35,30.81-19.64,0-15.41-17.41-20.54-35.49-27.46-19.2-7.37-38.84-17-38.84-43.08,0-28.58,29.46-39.74,56-39.74,9.83,0,28.8,2.24,40.63,6.25l-8.7,23.67c-8.26-3.58-18.76-8.26-32.59-8.26-21,0-26.79,9.59-26.79,18.08,0,11.6,13.62,15.85,29,21.43,20.76,7.36,45.31,17,45.31,48.66C680.67,181.14,650.76,188.06,621.07,188.06Z" transform="translate(0 -1.99)" fill="#fff"/><path d="M751.65,187c-36.83,0-50.44-25.23-50.44-54.69,0-28.35,13.84-53.58,50.44-53.58,37.06,0,50.23,23.89,50.23,53.58C801.88,161.5,788.26,187,751.65,187Zm0-88.85c-16.07,0-24.55,9.16-24.55,34.16,0,23,7.59,35.27,24.55,35.27,15.63,0,24.34-10.5,24.34-35.27C776,107.26,768.62,98.1,751.65,98.1Z" transform="translate(0 -1.99)" fill="#fff"/><path d="M850.09,76.9v4.91h23.22v19.42H850.09v82.59H824.87V101.23H809.46V81.81h15.41v-2.9c0-31.26,29.46-44,50.44-45.76l6.25,20.76C861.47,55.91,850.09,61.94,850.09,76.9Z" transform="translate(0 -1.99)" fill="#fff"/><path d="M943.17,205.47C918.4,199.22,897,183.15,897,157v-55.8H880V81.58h17V54.35h25.22V81.58h23.89v19.65H922.19V159c0,14.51,10.72,20.76,27.68,24.78Z" transform="translate(0 -1.99)" fill="#fff"/></g><g style="isolation:isolate"><path d="M323.41,183.82,272.07,72.66V183.82H245.28V39.4H287l50.9,111.16V39.4H365.6V183.82Z" transform="translate(0 -1.99)" fill="#666"/><path d="M461.8,183.82,458,173.55c-5.58,5.36-15.4,13.17-26.56,13.17-25.9,0-39.74-10.27-39.74-29.69,0-20.76,12.5-37.27,56-37.27h8.48v-4.92c0-7.81-1.56-16.51-14.51-16.51-14.06,0-27.45,4.24-37.27,8.93L395.73,86.5c13.62-4.92,31.25-7.59,47.32-7.59,22.55,0,38.62,10.26,38.62,32.59v41.07c0,8,2.68,19.87,4,31.25Zm-5.35-47.1h-5.58c-24.11,0-32.82,6.92-32.82,19.2,0,8.7,8.71,11.38,18.08,11.38a24.78,24.78,0,0,0,20.32-10.49Z" transform="translate(0 -1.99)" fill="#666"/><path d="M560.24,205.47C535.46,199.22,514,183.15,514,157v-55.8h-17V81.58h17V54.35h25.22V81.58h23.88v19.65H539.26V159c0,14.51,10.71,20.76,27.68,24.78Z" transform="translate(0 -1.99)" fill="#666"/><path d="M622.07,188.06c-12.5,0-31-3.57-43.3-6.92l8.7-23.66c10.72,4,23,8.93,34.82,8.93,18.09,0,30.81-3.35,30.81-19.64,0-15.41-17.41-20.54-35.49-27.46-19.2-7.37-38.84-17-38.84-43.08,0-28.58,29.46-39.74,56-39.74,9.83,0,28.8,2.24,40.63,6.25l-8.7,23.67c-8.26-3.58-18.76-8.26-32.59-8.26-21,0-26.79,9.59-26.79,18.08,0,11.6,13.62,15.85,29,21.43,20.76,7.36,45.31,17,45.31,48.66C681.67,181.14,651.76,188.06,622.07,188.06Z" transform="translate(0 -1.99)" fill="#666"/><path d="M752.65,187c-36.83,0-50.44-25.23-50.44-54.69,0-28.35,13.84-53.58,50.44-53.58,37.06,0,50.23,23.89,50.23,53.58C802.88,161.5,789.26,187,752.65,187Zm0-88.85c-16.07,0-24.55,9.16-24.55,34.16,0,23,7.59,35.27,24.55,35.27,15.63,0,24.34-10.5,24.34-35.27C777,107.26,769.62,98.1,752.65,98.1Z" transform="translate(0 -1.99)" fill="#666"/><path d="M851.09,76.9v4.91h23.22v19.42H851.09v82.59H825.87V101.23H810.46V81.81h15.41v-2.9c0-31.26,29.46-44,50.44-45.76l6.25,20.76C862.47,55.91,851.09,61.94,851.09,76.9Z" transform="translate(0 -1.99)" fill="#666"/><path d="M944.17,205.47C919.4,199.22,898,183.15,898,157v-55.8H881V81.58h17V54.35h25.22V81.58h23.89v19.65H923.19V159c0,14.51,10.72,20.76,27.68,24.78Z" transform="translate(0 -1.99)" fill="#666"/></g><path d="M82.88,205.57a163.37,163.37,0,0,1-41.67-53.86c-5-10.34-8.73-21.13-10.17-32.7-.19-1.57-.31-3.15-.49-5-.23.43-.36.6-.43.79-.55,1.45-1.12,2.89-1.63,4.36a122.09,122.09,0,0,0-5.15,57.55,5.26,5.26,0,0,0,1.22,2.79,101.83,101.83,0,0,0,51.18,34.21,81.8,81.8,0,0,0,23,3.43c-.35-.25-.68-.53-1-.75A110.55,110.55,0,0,1,82.88,205.57Z" transform="translate(0 -1.99)" fill="#6a04ba"/><path d="M61.91,46.26c-1.47.23-3,.44-4.41.72C38.87,50.56,22.31,58.84,7.56,71.23A5.22,5.22,0,0,0,5.88,73.7a112.72,112.72,0,0,0-2.41,63.68A92.43,92.43,0,0,0,12.2,160c0-.45.09-.89.09-1.34a122.37,122.37,0,0,1,1.48-18.83c3.51-23.34,11.09-45.08,23.37-64.93,6-9.71,13-18.55,21.79-25.66,1.19-1,2.43-1.87,3.84-3A6.17,6.17,0,0,0,61.91,46.26Z" transform="translate(0 -1.99)" fill="red"/><path d="M16.25,52.41A89.54,89.54,0,0,1,30.56,33.17,101.14,101.14,0,0,1,84.25,3.52a4.71,4.71,0,0,1,2.87.29,111.08,111.08,0,0,1,45,33.3c1,1.19,1.86,2.43,2.79,3.65.12.16.2.36.44.79-1.6-.75-3-1.42-4.35-2-10.27-4.44-21-6.37-32.06-7-22.5-1.25-44.21,2.74-65.21,11.22a107.91,107.91,0,0,0-16.26,8.07Z" transform="translate(0 -1.99)" fill="#f93"/><path d="M182,41.9a5.33,5.33,0,0,0-1.2-2.76A102,102,0,0,0,129.45,5.27a81.76,81.76,0,0,0-23-3.28c.35.25.69.53,1.06.75a111.3,111.3,0,0,1,14.81,10.71,163.37,163.37,0,0,1,42,53.6c5,10.3,8.86,21.07,10.36,32.63.2,1.53.32,3.08.51,4.85v.08a6.72,6.72,0,0,0,.4-.75c.55-1.46,1.11-2.91,1.61-4.38A122,122,0,0,0,182,41.9Z" transform="translate(0 -1.99)" fill="#ff0"/><path d="M83.07,205.57A163.5,163.5,0,0,1,41.4,151.71c-5-10.34-8.73-21.13-10.16-32.7-.2-1.57-.32-3.15-.5-5-.15.26-.29.52-.42.79-.56,1.45-1.13,2.89-1.64,4.36a122.07,122.07,0,0,0-5.12,57.58,5.24,5.24,0,0,0,1.19,2.76,102,102,0,0,0,51.18,34.21,81.8,81.8,0,0,0,23,3.43c-.35-.25-.69-.53-1.06-.75A111.1,111.1,0,0,1,83.07,205.57Z" transform="translate(0 -1.99)" fill="#6a04ba"/><path d="M62.1,46.26c-1.47.23-2.94.44-4.41.72C39.06,50.56,22.5,58.84,7.75,71.23A5.34,5.34,0,0,0,6.07,73.7a112.81,112.81,0,0,0-2.41,63.68A93,93,0,0,0,12.39,160c0-.45.09-.89.09-1.34A123.63,123.63,0,0,1,14,139.8c3.51-23.34,11.09-45.08,23.37-64.93,6-9.71,13-18.55,21.79-25.66,1.2-1,2.44-1.87,3.84-3A6.17,6.17,0,0,0,62.1,46.26Z" transform="translate(0 -1.99)" fill="red"/><path d="M16.45,52.41A89.19,89.19,0,0,1,30.7,33.17,101.14,101.14,0,0,1,84.39,3.52a4.74,4.74,0,0,1,2.88.29,111.08,111.08,0,0,1,45,33.3c1,1.19,1.87,2.43,2.79,3.65.12.16.2.36.44.79-1.59-.75-3-1.42-4.35-2-10.27-4.44-21.05-6.37-32.06-7-22.5-1.25-44.21,2.74-65.21,11.22a109,109,0,0,0-16.32,8.06A10.52,10.52,0,0,1,16.45,52.41Z" transform="translate(0 -1.99)" fill="#f93"/><path d="M182.23,41.9A5.35,5.35,0,0,0,181,39.14,102,102,0,0,0,129.64,5.27a81.76,81.76,0,0,0-23-3.28c.36.25.69.53,1.06.75a111,111,0,0,1,14.86,10.73,163.37,163.37,0,0,1,42,53.6c5,10.3,8.85,21.07,10.35,32.63.2,1.53.33,3.08.51,4.85v.08c.22-.4.34-.57.41-.75.54-1.46,1.11-2.91,1.6-4.38A122.22,122.22,0,0,0,182.23,41.9Z" transform="translate(0 -1.99)" fill="#ff0"/><path d="M202.36,82.13a93.18,93.18,0,0,0-8.69-22.61,12.83,12.83,0,0,0-.11,1.38A122.41,122.41,0,0,1,192,79.73a168.61,168.61,0,0,1-23.48,64.83c-6,9.7-13,18.53-21.84,25.63-1.2,1-2.44,1.86-3.85,2.94a6.17,6.17,0,0,0,.86,0c1.47-.22,3-.42,4.41-.7,18.64-3.54,35.21-11.79,50-24.16a5.15,5.15,0,0,0,1.68-2.47A112.61,112.61,0,0,0,202.36,82.13Z" transform="translate(0 -1.99)" fill="#12b429"/><path d="M.64,102.32a7.17,7.17,0,0,1-.24,3.19v-3.13a.15.15,0,0,1,.19-.09Z" transform="translate(0 -1.99)" fill="#fe7373"/><path d="M189.9,168.35a89.5,89.5,0,0,1-14.17,19.31,101.15,101.15,0,0,1-53.57,29.91,4.71,4.71,0,0,1-2.87-.28,111,111,0,0,1-45.12-33.08c-1-1.19-1.88-2.43-2.81-3.64-.12-.16-.2-.36-.44-.78,1.6.73,3,1.4,4.36,2,10.29,4.39,21.08,6.28,32.09,6.83,22.5,1.14,44.2-3,65.16-11.53a108.23,108.23,0,0,0,16.23-8.19C189.12,168.72,189.56,168.55,189.9,168.35Z" transform="translate(0 -1.99)" fill="blue"/></svg>