<svg id="adc0cc3d-21e8-42c1-b30c-b89bdaa67c8d" data-name="Capa 1" xmlns="http://www.w3.org/2000/svg" viewBox="0 0 459.08 91.45"><path d="M75,239.83v59.78a2.3,2.3,0,0,0,.25,1,2,2,0,0,0,.67.75L98.84,316V255Z" transform="translate(-75 -224.59)" fill="#6c6e70"/><path d="M146.46,224.59l22.92,14.65a2,2,0,0,1,.67.76,2.23,2.23,0,0,1,.25,1V300.8l-23.84-15.24Z" transform="translate(-75 -224.59)" fill="#ffd244"/><path d="M98.8,316l23.85-15.24L98.8,285.56Zm.92-90.85,46.74,29.89v30.48L75,239.83l22.92-14.64a1.6,1.6,0,0,1,1.8,0Z" transform="translate(-75 -224.59)" fill="#6c6e70"/><path d="M146.46,224.59l-23.81,15.24,23.81,15.25ZM170.3,300.8l-22.93,14.65a1.67,1.67,0,0,1-.91.25,1.84,1.84,0,0,1-.92-.25L98.8,285.56V255Z" transform="translate(-75 -224.59)" fill="#ffd244"/><path d="M190.28,301.25q-7.29,0-11.16-3.69T175.25,287q0-6.75,3.87-10.44t11.16-3.69h34.56v-2.16q0-5.49-5.4-5.49H181.28V254.9h41.58q8.19,0,11.61,3.73t3.42,10.49v32.13Zm2.34-10.35h32.22v-7.65H192.62a3.42,3.42,0,0,0-2.66,1A3.92,3.92,0,0,0,189,287a4.08,4.08,0,0,0,.94,2.79A3.35,3.35,0,0,0,192.62,290.9Z" transform="translate(-75 -224.59)" fill="#6c6e70"/><path d="M271.91,301.25q-7.83,0-11.52-3.92A14.4,14.4,0,0,1,256.7,287V265.25H243.29V254.9H256.7V240.68h13.05V254.9H289v10.35H269.75v20.16q0,5.49,5.4,5.49h16.38v10.35Z" transform="translate(-75 -224.59)" fill="#6c6e70"/><path d="M296.75,301.7V291.35h44.09c2.53,0,3.78-1.41,3.78-4.23s-1.25-4.14-3.78-4.14H312.32q-8,0-12.15-3.65c-2.77-2.43-4.14-5.92-4.14-10.48s1.39-8.18,4.18-10.67,6.83-3.73,12.11-3.73h41V264.8H313c-2.59,0-3.87,1.26-3.87,3.78a4,4,0,0,0,1.08,3,3.76,3.76,0,0,0,2.79,1.08h30.24q7,0,10.75,3.64t3.73,10.58q0,7-3.77,10.93c-2.52,2.61-6.1,3.92-10.71,3.92Z" transform="translate(-75 -224.59)" fill="#6c6e70"/><path d="M389.08,301.7q-12.06,0-18.81-6t-6.75-17.59q0-11.7,6.75-17.69t18.81-6h16.65q12.06,0,18.81,6t6.75,17.69q0,11.61-6.75,17.59t-18.81,6Zm0-10.35h16.65q5.85,0,9-3.24t3.1-10q0-6.84-3.1-10.08t-9-3.24H389.08q-5.85,0-8.95,3.24T377,278.12q0,6.75,3.11,10T389.08,291.35Z" transform="translate(-75 -224.59)" fill="#6c6e70"/><path d="M449.65,301.25v-36H436.24V254.9h13.41v-3.6A14.42,14.42,0,0,1,453.34,241q3.69-3.92,11.52-3.91h19.62v10.35H468.1q-5.4,0-5.4,5.49v2H482v10.35H462.7v36Z" transform="translate(-75 -224.59)" fill="#6c6e70"/><path d="M514.45,301.25q-7.83,0-11.52-3.92a14.4,14.4,0,0,1-3.69-10.3V265.25H485.83V254.9h13.41V240.68h13V254.9h19.26v10.35H512.29v20.16q0,5.49,5.4,5.49h16.38v10.35Z" transform="translate(-75 -224.59)" fill="#6c6e70"/><line x1="23.84" y1="91.45" x2="23.84" y2="30.44" fill="#ffd244" stroke="#ffd244" stroke-miterlimit="10" stroke-width="0.5"/><line x1="71.46" y1="60.33" x2="71.46" fill="#58585a" stroke="#6c6e70" stroke-miterlimit="10" stroke-width="0.5"/><line x1="0.18" y1="15.24" x2="23.66" y2="30.64" fill="#ffd244" stroke="#ffd244" stroke-miterlimit="10" stroke-width="0.5"/><line x1="95.46" y1="75.96" x2="70.61" y2="59.87" fill="#6c6e70" stroke="#6c6e70" stroke-miterlimit="10" stroke-width="0.5"/></svg>