<svg id="fef4bc53-2700-4b66-b4d7-5826163c732e" data-name="Capa 1" xmlns="http://www.w3.org/2000/svg" viewBox="0 0 150 150"><circle cx="75" cy="75" r="33.14" fill="#ffff93"/><path d="M416.55,433.86a38.56,38.56,0,1,1,38.56-38.55A38.59,38.59,0,0,1,416.55,433.86Zm0-66.27a27.72,27.72,0,1,0,27.72,27.72A27.75,27.75,0,0,0,416.55,367.59Z" transform="translate(-341.55 -320.31)" fill="#ffff93"/><path d="M416.55,348.76a5.42,5.42,0,0,1-5.42-5.42V325.73a5.42,5.42,0,1,1,10.84,0v17.61A5.42,5.42,0,0,1,416.55,348.76Z" transform="translate(-341.55 -320.31)" fill="#ffff93"/><path d="M416.55,470.31a5.42,5.42,0,0,1-5.42-5.42V447.27a5.42,5.42,0,0,1,10.84,0v17.62A5.42,5.42,0,0,1,416.55,470.31Z" transform="translate(-341.55 -320.31)" fill="#ffff93"/><path d="M486.13,400.73H468.52a5.42,5.42,0,1,1,0-10.84h17.61a5.42,5.42,0,1,1,0,10.84Z" transform="translate(-341.55 -320.31)" fill="#ffff93"/><path d="M364.59,400.73H347a5.42,5.42,0,1,1,0-10.84h17.62a5.42,5.42,0,0,1,0,10.84Z" transform="translate(-341.55 -320.31)" fill="#ffff93"/><path d="M453.3,364a5.42,5.42,0,0,1-3.83-9.25l12.45-12.45a5.42,5.42,0,0,1,7.67,7.66l-12.46,12.45A5.41,5.41,0,0,1,453.3,364Z" transform="translate(-341.55 -320.31)" fill="#ffff93"/><path d="M367.35,449.93a5.42,5.42,0,0,1-3.83-9.25L376,428.22a5.42,5.42,0,0,1,7.66,7.66l-12.46,12.46A5.39,5.39,0,0,1,367.35,449.93Z" transform="translate(-341.55 -320.31)" fill="#ffff93"/><path d="M465.75,449.93a5.41,5.41,0,0,1-3.83-1.59l-12.45-12.46a5.42,5.42,0,0,1,7.66-7.66l12.45,12.46a5.42,5.42,0,0,1-3.83,9.25Z" transform="translate(-341.55 -320.31)" fill="#ffff93"/><path d="M379.81,364a5.37,5.37,0,0,1-3.83-1.59l-12.46-12.45a5.42,5.42,0,0,1,7.66-7.66l12.46,12.45a5.42,5.42,0,0,1-3.83,9.25Z" transform="translate(-341.55 -320.31)" fill="#ffff93"/></svg>