<?xml version="1.0" encoding="utf-8"?>
<!-- Generator: Adobe Illustrator 25.3.1, SVG Export Plug-In . SVG Version: 6.00 Build 0)  -->
<svg version="1.1" id="e2eb27c9-1787-461a-a193-8a3c70c01f55"
	 xmlns="http://www.w3.org/2000/svg" xmlns:xlink="http://www.w3.org/1999/xlink" x="0px" y="0px" viewBox="0 0 121.2 121.2"
	 style="enable-background:new 0 0 121.2 121.2;" xml:space="preserve">
<style type="text/css">
	.st0{fill:#FFFFFF;}
	.st1{fill:#1565FB;}
</style>
<rect x="32.4" y="14.3" class="st0" width="57.5" height="106.9"/>
<path class="st1" d="M0,10.6v100c0,5.8,4.8,10.6,10.6,10.6h39.6V74.4H34.4V55.3h15.8V39.2c0-11.7,9.5-21.2,21.1-21.2h0h16.5v17.2H76
	c-3.7,0-6.7,3-6.7,6.8v13.3h18.2L85,74.4H69.3v46.8h41.3c5.9,0,10.6-4.8,10.6-10.6l0,0v-100c0-5.9-4.8-10.6-10.6-10.6h-100
	C4.7,0,0,4.8,0,10.6z"/>
</svg>
