<svg id="b6ef240d-09b5-479b-9736-0a047d39ec2c" data-name="svg4" xmlns="http://www.w3.org/2000/svg" xmlns:xlink="http://www.w3.org/1999/xlink" viewBox="0 0 121.28 121.25"><defs><radialGradient id="b4886ba2-0237-4024-8fc2-c63e8a36ad84" cx="-418.56" cy="323.77" r="60.63" gradientTransform="matrix(0, -1.98, -1.84, 0, 918.57, -409.11)" gradientUnits="userSpaceOnUse"><stop offset="0" stop-color="#fd5"/><stop offset="0.1" stop-color="#fd5"/><stop offset="0.5" stop-color="#ff543e"/><stop offset="1" stop-color="#c837ab"/></radialGradient><radialGradient id="bba65c61-42f5-4f44-b174-a814dab6b66e" cx="-525.4" cy="416.13" r="60.63" gradientTransform="matrix(0.17, 0.87, 3.58, -0.72, -1130.05, 1053.48)" gradientUnits="userSpaceOnUse"><stop offset="0" stop-color="#3771c8"/><stop offset="0.13" stop-color="#3771c8"/><stop offset="1" stop-color="#60f" stop-opacity="0"/></radialGradient></defs><path id="be0d0d01-56e2-4add-9884-21cb8ed4e78d" data-name="path22" d="M350,289.88c-25.31,0-32.72,0-34.16.14-5.19.43-8.43,1.25-11.95,3a24.23,24.23,0,0,0-7,5.1,26.07,26.07,0,0,0-7,14.74c-.41,2.84-.53,3.42-.55,17.9,0,4.83,0,11.18,0,19.71,0,25.29,0,32.69.15,34.13a30.45,30.45,0,0,0,2.89,11.71A25.56,25.56,0,0,0,309,409.85a43.46,43.46,0,0,0,8.81,1.16c1.5.07,16.81.11,32.12.11s30.63,0,32.1-.09a41.3,41.3,0,0,0,9.12-1.19,25.41,25.41,0,0,0,16.56-13.56,30.05,30.05,0,0,0,2.86-11.49c.08-1,.11-17.7.11-34.33s0-33.26-.12-34.31a29.59,29.59,0,0,0-2.91-11.6,24.26,24.26,0,0,0-5.19-7.11,26.27,26.27,0,0,0-14.77-7c-2.83-.41-3.4-.53-17.89-.55Z" transform="translate(-289.36 -289.88)" fill="url(#b4886ba2-0237-4024-8fc2-c63e8a36ad84)"/><path id="a54e20fd-d6b5-41e2-9ba5-2cd084f21100" data-name="path24" d="M350,289.88c-25.31,0-32.72,0-34.16.14-5.19.43-8.43,1.25-11.95,3a24.23,24.23,0,0,0-7,5.1,26.07,26.07,0,0,0-7,14.74c-.41,2.84-.53,3.42-.55,17.9,0,4.83,0,11.18,0,19.71,0,25.29,0,32.69.15,34.13a30.45,30.45,0,0,0,2.89,11.71A25.56,25.56,0,0,0,309,409.85a43.46,43.46,0,0,0,8.81,1.16c1.5.07,16.81.11,32.12.11s30.63,0,32.1-.09a41.3,41.3,0,0,0,9.12-1.19,25.41,25.41,0,0,0,16.56-13.56,30.05,30.05,0,0,0,2.86-11.49c.08-1,.11-17.7.11-34.33s0-33.26-.12-34.31a29.59,29.59,0,0,0-2.91-11.6,24.26,24.26,0,0,0-5.19-7.11,26.27,26.27,0,0,0-14.77-7c-2.83-.41-3.4-.53-17.89-.55Z" transform="translate(-289.36 -289.88)" fill="url(#bba65c61-42f5-4f44-b174-a814dab6b66e)"/><path id="add443a8-e857-491c-8900-f311468ae307" data-name="path26" d="M350,305.73c-12.15,0-13.68.06-18.46.27a33,33,0,0,0-10.86,2.08,23,23,0,0,0-13.1,13.1A32.53,32.53,0,0,0,305.49,332c-.21,4.78-.27,6.31-.27,18.47s0,13.68.27,18.45a32.85,32.85,0,0,0,2.08,10.87,22.9,22.9,0,0,0,13.09,13.1A33.11,33.11,0,0,0,331.53,395c4.78.21,6.3.27,18.46.27s13.68-.06,18.46-.27a33.16,33.16,0,0,0,10.87-2.08,23,23,0,0,0,13.09-13.1A33.11,33.11,0,0,0,394.49,369c.22-4.77.27-6.3.27-18.45s-.05-13.69-.27-18.47a33,33,0,0,0-2.08-10.86,23,23,0,0,0-13.09-13.1A33.23,33.23,0,0,0,368.44,306c-4.78-.21-6.3-.27-18.46-.27Zm-4,8.07h4c12,0,13.38,0,18.1.26a24.91,24.91,0,0,1,8.31,1.54,14.85,14.85,0,0,1,8.49,8.5,24.46,24.46,0,0,1,1.55,8.31c.21,4.72.26,6.14.26,18.08s-.05,13.37-.26,18.09a24.46,24.46,0,0,1-1.55,8.31,14.87,14.87,0,0,1-8.49,8.49,24.58,24.58,0,0,1-8.31,1.55c-4.72.21-6.14.26-18.1.26s-13.37-.05-18.09-.26a24.84,24.84,0,0,1-8.31-1.55,14.85,14.85,0,0,1-8.5-8.49,24.91,24.91,0,0,1-1.54-8.31c-.22-4.72-.26-6.14-.26-18.1s0-13.36.26-18.08a24.79,24.79,0,0,1,1.54-8.31,14.83,14.83,0,0,1,8.5-8.5A24.58,24.58,0,0,1,331.9,314c4.13-.18,5.73-.24,14.08-.25Zm27.91,7.44a5.37,5.37,0,1,0,5.38,5.37,5.37,5.37,0,0,0-5.38-5.37ZM350,327.51a23,23,0,1,0,23,23,23,23,0,0,0-23-23Zm0,8.07a14.93,14.93,0,1,1-14.92,14.93A14.92,14.92,0,0,1,350,335.58Z" transform="translate(-289.36 -289.88)" fill="#fff"/></svg>