<svg id="e807b5e6-d625-4107-83cf-c65130c8848c" data-name="Capa 1" xmlns="http://www.w3.org/2000/svg" viewBox="0 0 104.1 121"><path d="M124.24,92.26q-.78-.37-1.59-.72c-.93-17.21-10.34-27.06-26.13-27.16h-.21c-9.44,0-17.3,4-22.13,11.37l8.68,6c3.61-5.48,9.28-6.64,13.45-6.64h.15c5.2,0,9.12,1.54,11.66,4.49a17.73,17.73,0,0,1,3.7,8.85,67,67,0,0,0-14.93-.72c-15,.87-24.66,9.62-24,21.79a18.78,18.78,0,0,0,8.65,15,26.78,26.78,0,0,0,16.11,4c7.85-.43,14-3.43,18.31-8.9,3.26-4.16,5.32-9.55,6.24-16.35a19.25,19.25,0,0,1,8,8.81c2.61,6.07,2.76,16-5.38,24.18-7.14,7.13-15.71,10.21-28.67,10.31-14.38-.11-25.25-4.72-32.32-13.71-6.61-8.41-10-20.56-10.16-36.12C53.83,81.13,57.25,69,63.86,60.56c7.07-9,17.94-13.6,32.32-13.7,14.48.11,25.54,4.74,32.88,13.77a44.69,44.69,0,0,1,8.1,16.48l10.17-2.71a55,55,0,0,0-10.22-20.59c-9.41-11.57-23.17-17.51-40.9-17.63h-.07c-17.69.12-31.3,6.08-40.44,17.7C47.57,64.22,43.37,78.6,43.23,96.64v.08c.14,18,4.34,32.43,12.47,42.77,9.14,11.62,22.75,17.57,40.44,17.69h.07c15.73-.11,26.82-4.23,36-13.35,12-11.94,11.59-26.91,7.65-36.09C137,101.15,131.6,95.8,124.24,92.26ZM97.08,117.8c-6.58.37-13.42-2.58-13.75-8.91-.25-4.69,3.33-9.92,14.15-10.55,1.24-.07,2.46-.1,3.65-.1a51.47,51.47,0,0,1,11,1.11C110.83,114.92,103.52,117.44,97.08,117.8Z" transform="translate(-43.23 -36.18)"/></svg>