<?xml version="1.0" encoding="utf-8"?>
<!-- Generator: Adobe Illustrator 25.3.1, SVG Export Plug-In . SVG Version: 6.00 Build 0)  -->
<svg version="1.1" id="bdc8f436-4fb5-40fe-b172-6307c3332530"
	 xmlns="http://www.w3.org/2000/svg" xmlns:xlink="http://www.w3.org/1999/xlink" x="0px" y="0px" viewBox="0 0 121.2 121.2"
	 style="enable-background:new 0 0 121.2 121.2;" xml:space="preserve">
<style type="text/css">
	.st0{fill:#7AD06D;}
</style>
<g>
	<path class="st0" d="M58.1,0.2C26.1,1.7,0.9,28.4,1,60.4c0,9.7,2.4,18.9,6.5,27.1l-6.4,30.9c-0.3,1.7,1.2,3.1,2.8,2.7l30.3-7.2
		c7.8,3.9,16.5,6.1,25.8,6.3c32.7,0.5,59.9-25.4,60.9-58.1C122.1,27.1,93.2-1.4,58.1,0.2z M94.3,93.4c-8.9,8.9-20.7,13.8-33.2,13.8
		c-7.4,0-14.4-1.6-20.9-4.9l-4.2-2.1l-18.6,4.4l3.9-19l-2.1-4.1C15.7,74.9,14,67.7,14,60.2c0-12.6,4.9-24.4,13.8-33.2
		c8.8-8.8,20.8-13.8,33.2-13.8c12.6,0,24.4,4.9,33.2,13.8c8.9,8.9,13.8,20.7,13.8,33.2C108,72.6,103.1,84.6,94.3,93.4z"/>
	<path class="st0" d="M90.2,73.2l-11.6-3.3c-1.5-0.4-3.2,0-4.3,1.1l-2.8,2.9c-1.2,1.2-3,1.6-4.6,1c-5.5-2.2-17.1-12.5-20-17.7
		c-0.9-1.5-0.7-3.3,0.3-4.7l2.5-3.2c1-1.3,1.2-2.9,0.5-4.4l-4.9-11.1c-1.2-2.7-4.6-3.4-6.8-1.6c-3.2,2.7-7.1,6.9-7.6,11.5
		c-0.8,8.1,2.7,18.4,15.9,30.7C62,88.8,74.3,90.7,82.2,88.8c4.5-1.1,8.1-5.5,10.4-9.1C94.2,77.3,93,74,90.2,73.2z"/>
</g>
</svg>
