<?xml version="1.0" encoding="utf-8"?>
<!-- Generator: Adobe Illustrator 25.3.1, SVG Export Plug-In . SVG Version: 6.00 Build 0)  -->
<svg version="1.1" id="bdc8f436-4fb5-40fe-b172-6307c3332530"
	 xmlns="http://www.w3.org/2000/svg" xmlns:xlink="http://www.w3.org/1999/xlink" x="0px" y="0px" viewBox="0 0 121.2 121.2"
	 style="enable-background:new 0 0 121.2 121.2;" xml:space="preserve">
<style type="text/css">
	.st0{fill:#E0E0E0;}
	.st1{fill:url(#SVGID_1_);}
	.st2{fill-rule:evenodd;clip-rule:evenodd;fill:#FFFFFF;}
	.st3{fill:#FFFFFF;}
</style>
<path class="st0" d="M103.4,17.7C92,6.4,76.9,0.1,60.9,0.1C27.8,0.1,0.8,27,0.8,60.2c0,10.6,2.8,20.9,8,30l-8.5,31.1l31.8-8.4
	c8.8,4.8,18.7,7.3,28.7,7.3h0h0c33.1,0,60.1-26.9,60.1-60.1C121,44.2,114.7,29.1,103.4,17.7L103.4,17.7z M60.9,110.1L60.9,110.1
	c-9,0-17.8-2.4-25.4-7l-1.8-1.1l-18.9,5l5-18.4l-1.2-1.9c-5-7.9-7.6-17.1-7.6-26.6c0-27.5,22.4-49.9,50-49.9
	c13.3,0,25.9,5.2,35.3,14.6c9.4,9.4,14.6,22,14.6,35.3C110.8,87.7,88.4,110.1,60.9,110.1z"/>
<linearGradient id="SVGID_1_" gradientUnits="userSpaceOnUse" x1="571.3499" y1="-310.4097" x2="571.3499" y2="-133.3013" gradientTransform="matrix(0.6531 0 0 -0.6531 -312.5059 -84.8623)">
	<stop  offset="0" style="stop-color:#20B038"/>
	<stop  offset="1" style="stop-color:#60D66A"/>
</linearGradient>
<path class="st1" d="M3,117.9l8.1-29.7c-5-8.7-7.7-18.6-7.7-28.7c0-31.6,25.7-57.3,57.3-57.3c15.3,0,29.7,6,40.6,16.8
	c10.8,10.8,16.8,25.2,16.8,40.5c0,31.6-25.7,57.3-57.3,57.3c0,0,0,0,0,0h0c-9.6,0-19-2.4-27.4-7L3,117.9L3,117.9z"/>
<path class="st2" d="M46,34.7c-1.1-2.5-2.3-2.5-3.3-2.6c-0.9,0-1.9,0-2.8,0c-1,0-2.6,0.4-4,1.9c-1.4,1.5-5.2,5.1-5.2,12.4
	c0,7.3,5.3,14.4,6.1,15.3c0.7,1,10.3,16.4,25.3,22.4c12.5,4.9,15.1,4,17.8,3.7s8.8-3.6,10-7.1c1.2-3.5,1.2-6.4,0.9-7.1
	c-0.4-0.6-1.4-1-2.8-1.7c-1.5-0.7-8.8-4.3-10.1-4.8c-1.4-0.5-2.3-0.7-3.3,0.7c-1,1.5-3.8,4.8-4.7,5.8c-0.9,1-1.7,1.1-3.2,0.4
	c-1.5-0.7-6.3-2.3-11.9-7.4c-4.4-3.9-7.4-8.8-8.3-10.3c-0.9-1.5-0.1-2.3,0.7-3c0.7-0.7,1.5-1.7,2.2-2.6c0.7-0.9,1-1.5,1.5-2.5
	c0.5-1,0.2-1.9-0.1-2.6C50.2,44.9,47.3,37.6,46,34.7L46,34.7z"/>
<path class="st3" d="M102.9,17.5C91.7,6.3,76.8,0.1,60.9,0.1C28.1,0.1,1.5,26.7,1.5,59.5c0,10.5,2.7,20.7,7.9,29.7L1,119.9l31.5-8.3
	c8.7,4.7,18.4,7.2,28.4,7.2h0h0c32.7,0,59.4-26.6,59.4-59.4C120.3,43.7,114.1,28.7,102.9,17.5L102.9,17.5z M60.9,108.9L60.9,108.9
	c-8.9,0-17.6-2.4-25.1-6.9l-1.8-1.1l-18.7,4.9l5-18.2l-1.2-1.9c-4.9-7.9-7.6-16.9-7.5-26.3c0-27.2,22.2-49.3,49.4-49.3
	c13.2,0,25.6,5.1,34.9,14.5c9.3,9.3,14.4,21.7,14.4,34.9C110.2,86.7,88.1,108.9,60.9,108.9z"/>
</svg>
