<svg id="ac7166df-939f-4f8d-be2a-952339cec2bb" data-name="Layer 1" xmlns="http://www.w3.org/2000/svg" viewBox="0 0 173.58 121.25"><g id="b42b55d1-a040-4900-b7d0-628701d80da1" data-name="g8"><path id="b416af8a-1083-4667-960f-b2bef93b568a" data-name="path4" d="M247.7,308.25A21.76,21.76,0,0,0,232.4,293c-13.58-3.57-67.92-3.57-67.92-3.57s-54.33,0-67.91,3.57a21.74,21.74,0,0,0-15.3,15.3C77.7,321.83,77.7,350,77.7,350s0,28.31,3.57,41.75a21.74,21.74,0,0,0,15.3,15.3c13.58,3.57,67.91,3.57,67.91,3.57s54.34,0,67.92-3.57a21.76,21.76,0,0,0,15.3-15.3c3.57-13.58,3.57-41.75,3.57-41.75S251.27,321.83,247.7,308.25Z" transform="translate(-77.7 -289.38)" fill="red"/><polygon id="a0405fb5-4b79-4374-8a49-f1694401d797" data-name="polygon6" points="114.53 60.77 69.34 34.6 69.34 86.79 114.53 60.77" fill="#fff"/></g></svg>